# xmcd CD database file
#
# Track frame offsets:
#	182
#	12455
#	25280
#	40590
#	53297
#	67280
#	82542
#	96502
#	107762
#	120522
#	134215
#	145590
#	156817
#	169917
#	182270
#	193272
#
# Disc length: 2716 seconds
#
# Revision: 0
# Processed by: cddbd v1.4PL0 Copyright (c) Steve Scherf et al.
# Submitted via: CDex 1.50Beta7
#
DISCID=d30a9a10
DTITLE=Stan Getz - Cool Jazz
DYEAR=1989
DGENRE=Jazz
TTITLE0=S'cool boy
TTITLE1=Prelude to a kiss
TTITLE2=I only have eyes for you
TTITLE3=Ack, Värmeland du sköna
TTITLE4=Night and day
TTITLE5=Flamingo
TTITLE6=Don't get scared
TTITLE7=I'm getting sentimental over you
TTITLE8=On the alamo
TTITLE9=You got to my head
TTITLE10=Strike up the band
TTITLE11=Out of nowhere
TTITLE12=S'wonderful
TTITLE13=The best thing for you
TTITLE14=Fools rush in
TTITLE15=Sometimes i'm happy
EXTD=YEAR: 1989
EXTT0=
EXTT1=
EXTT2=
EXTT3=
EXTT4=
EXTT5=
EXTT6=
EXTT7=
EXTT8=
EXTT9=
EXTT10=
EXTT11=
EXTT12=
EXTT13=
EXTT14=
EXTT15=
PLAYORDER=
